<svg xmlns="http://www.w3.org/2000/svg" viewBox="0 0 48 48">
  <path fill="#FFC107" d="M43.6 20.5H42V20H24v8h11.3C33.7 32.7 29.3 36 24 36c-6.6 0-12-5.4-12-12s5.4-12 12-12c3.1 0 5.9 1.2 8 3.1l5.7-5.7C34.1 6.1 29.3 4 24 4 13 4 4 13 4 24s9 20 20 20 20-9 20-20c0-1.3-.1-2.4-.4-3.5z"/>
  <path fill="#FF3D00" d="M6.3 14.7l6.6 4.8C14.7 15.1 19 12 24 12c3.1 0 5.9 1.2 8 3.1l5.7-5.7C34.1 6.1 29.3 4 24 4 16.3 4 9.6 8.3 6.3 14.7z"/>
  <path fill="#4CAF50" d="M24 44c5.2 0 10-2 13.5-5.3l-6.2-5.2C29.3 35.1 26.8 36 24 36c-5.2 0-9.6-3.3-11.2-7.8l-6.5 5C9.6 39.6 16.3 44 24 44z"/>
  <path fill="#1976D2" d="M43.6 20.5H42V20H24v8h11.3c-.8 2.3-2.3 4.2-4.1 5.5l6.2 5.2C36.9 39.1 44 34 44 24c0-1.3-.1-2.4-.4-3.5z"/>
</svg>
